<svg width="148" height="128" viewBox="0 0 148 128" fill="none" xmlns="http://www.w3.org/2000/svg">
<path d="M103.821 40.7142H38.9426V87.5431H103.821V40.7126V40.7142Z" fill="black"/>
<path d="M98.0252 100.664C98.527 98.936 98.5516 97.1049 98.0964 95.3645C97.6412 93.6241 96.7232 92.0395 95.4398 90.779C93.9935 89.3964 87.7843 85.0183 83.1727 84.5843C79.8599 84.2709 76.2268 84.1818 73.547 86.1543C70.8671 88.1268 67.7702 93.8728 68.9292 98.0205C69.4354 99.8317 71.2335 100.976 72.5769 102.293C76.8458 106.445 82.5459 108.798 88.5001 108.868C95.0381 108.916 96.39 106.016 98.0252 100.664Z" fill="#92FCFF"/>
<path d="M99.2809 96.6242C98.9306 94.3967 98.1963 92.4696 95.296 89.9625C89.1774 84.8079 77.7674 81.2762 71.7925 86.5338C69.8292 88.2604 69.0273 91.8336 68.3645 94.3514C68.0041 95.3744 67.9552 96.4813 68.2239 97.532C69.9729 104.506 84.2639 111.779 92.6676 108.991C94.0602 108.553 95.9381 107.481 96.634 106.313C98.2667 103.337 99.1736 100.017 99.2809 96.6242ZM74.5622 86.0068C83.1264 81.9698 99.1349 89.8972 98.1249 97.923C96.6532 108.648 77.1652 101.639 72.4154 94.8046C70.2532 91.8574 70.2985 87.9732 74.5622 86.0068ZM70.4291 91.2122C70.6161 93.2969 71.5543 95.2426 73.069 96.6871C72.5605 98.7487 72.95 98.6273 71.5782 100.819C68.6771 97.625 68.8223 96.204 70.4291 91.2084V91.2122ZM72.241 101.509C72.4353 100.911 72.6289 100.007 72.8977 99.3156C73.1412 98.6903 73.5491 97.9791 73.8194 97.4245C75.3585 98.8021 77.071 99.9726 78.9134 100.906C78.3573 102.768 78.865 102.658 77.2382 105.2C75.4078 104.208 73.7256 102.965 72.241 101.505V101.509ZM78.0117 105.606C79.2122 101.797 78.9902 103.194 79.8013 101.347C81.7834 102.298 83.8607 103.036 85.9983 103.549C85.7986 104.129 85.5981 105.107 85.3016 105.838C85.0266 106.518 84.5435 107.293 84.2685 107.846C82.1004 107.352 79.9997 106.599 78.0117 105.602V105.606ZM85.1787 108.033C85.8992 104.764 86.0305 105.627 86.9776 103.764C88.6696 104.138 90.4071 104.263 92.1353 104.136C91.8043 106.95 91.7221 106.232 90.9832 108.169C89.0569 108.471 87.092 108.424 85.1826 108.029L85.1787 108.033ZM91.9425 107.946C92.2321 105.301 92.8412 105.257 93.1584 103.992C94.829 103.651 96.3291 102.74 97.4021 101.415C96.111 105.96 94.6969 107.16 91.9418 107.942L91.9425 107.946Z" fill="black"/>
<path d="M73.8433 93.8806C76.5907 98.1013 84.6311 102.015 92.3857 101.455C99.2578 100.932 97.588 92.5772 88.1866 88.4456C85.2771 87.1998 85.4215 87.3926 88.0637 88.7098C95.3229 92.4266 97.6648 98.0452 94.7353 100.001C91.4733 102.28 78.5087 99.649 74.4194 93.4997C73.4354 92.0403 72.9853 90.6508 73.8971 89.1346C75.5868 86.2788 80.3068 86.5569 83.5573 87.1668C87.3094 87.9072 85.4007 87.3373 83.6211 86.8826C74.6206 84.6451 70.7909 89.2091 73.8433 93.8806Z" fill="black"/>
<path d="M63.0975 103.689C63.8267 102.048 64.1053 100.243 63.9047 98.4584C63.7041 96.6742 63.0314 94.9756 61.9561 93.5378C60.7533 91.9801 55.3321 86.7602 50.8864 85.671C47.7073 84.8914 44.1863 84.2884 41.3052 85.863C38.494 87.3992 34.6075 92.6353 35.1651 96.9566C35.4055 98.8215 36.9963 100.209 38.1184 101.703C41.6618 106.396 46.8847 109.536 52.6922 110.464C59.0858 111.442 60.7832 108.714 63.0975 103.689Z" fill="#92FCFF"/>
<path d="M64.828 98.4145C62.9546 88.5829 43.6287 78.7729 37.5239 88.1797C36.3108 90.264 35.3289 92.4746 34.5959 94.7722C32.9215 103.63 55.2691 118.228 61.9039 107.744C63.2818 105.548 65.3134 100.967 64.828 98.4145ZM42.24 85.8831C50.8864 83.0227 65.6229 93.0102 63.5798 100.938C60.9099 111.295 42.7707 101.958 38.9825 94.2092C37.2013 90.7912 38.2006 87.0736 42.24 85.8831ZM37.5608 90.4617C37.4579 92.5363 38.0984 94.5786 39.3689 96.2223C38.59 98.1787 38.9994 98.1157 37.3534 100.095C34.9608 96.4866 35.3602 95.0978 37.5608 90.4617ZM37.908 100.876C38.1783 100.312 38.4902 99.4437 38.8481 98.7962C39.1692 98.2163 39.663 97.5749 40.0002 97.0657C41.301 98.6389 42.8012 100.036 44.4628 101.222C43.6609 102.988 44.1909 102.938 42.2431 105.232C40.6017 103.989 39.143 102.522 37.9095 100.874L37.908 100.876ZM42.9497 105.75C44.6049 102.223 44.2654 103.439 45.2793 101.793C47.0703 103.008 48.9851 104.03 50.9916 104.841C50.7166 105.387 50.3886 106.329 49.9977 107.012C49.6375 107.644 49.0591 108.34 48.7134 108.848C46.6745 108.051 44.7397 107.009 42.9512 105.747L42.9497 105.75ZM49.5845 109.166C50.7281 106.049 50.7366 106.901 51.9256 105.196C53.5132 105.803 55.1823 106.172 56.8775 106.292C56.1716 109.027 56.1992 108.289 55.1969 110.122C53.2838 110.147 51.3824 109.822 49.586 109.164L49.5845 109.166ZM56.1754 110.034C56.8114 107.479 57.4267 107.488 57.9075 106.294C59.5742 106.189 61.1523 105.507 62.3701 104.364C60.5075 108.606 59.022 109.629 56.177 110.032L56.1754 110.034Z" fill="black"/>
<path d="M44.0264 97.9766C47.0764 100.625 50.7574 102.442 54.7143 103.254C56.6215 103.638 58.7337 104.048 60.3667 103.147C61.6678 102.481 62.5389 100.915 61.9989 98.3914C61.2201 95.1055 58.1515 92.0508 55.2328 90.2058C52.7327 88.6566 52.6743 88.7626 55.0715 90.4485C58.2783 92.7528 62.3568 97.1179 61.399 100.783C60.7077 103.584 57.4049 103.031 54.8703 102.538C51.0399 101.733 47.4753 99.972 44.5079 97.4197C42.6645 95.8513 40.5362 93.2336 40.4962 90.9547C40.4471 89.2012 42.067 87.3078 44.7975 87.221C46.8766 87.1995 48.9422 87.5582 50.8923 88.2795C54.4493 89.546 52.6689 88.7096 50.9968 88.0083C40.5707 83.707 35.794 90.8848 44.0264 97.9766Z" fill="black"/>
<path d="M55.1866 114.328C54.2534 116.494 54.354 117.337 55.1767 118.989C56.4425 121.53 59.0233 125.662 61.7338 126.538C64.3338 127.379 69.7642 126.488 74.266 122.205C78.2916 118.376 81.0813 112.053 81.2057 109.993C81.4423 106.096 77.4666 102.884 74.8198 100.647C74.3583 100.209 73.8225 99.8571 73.2375 99.6075C72.0447 99.1796 69.6582 99.5161 68.4508 99.9708C65.6857 101.014 63.1233 104.123 60.6109 105.526C58.0117 106.976 56.8088 112.706 55.1866 114.328Z" fill="#92FCFF"/>
<path d="M81.6143 108.204C81.2993 106.17 76.6985 100.738 73.3097 99.2538C72.595 98.9464 71.8249 98.7884 71.0468 98.7898C70.2688 98.7911 69.4993 98.9516 68.7856 99.2615C61.3736 102.11 51.1964 113.429 55.2227 120.336C56.5364 122.578 58.242 124.566 60.2583 126.205C61.631 127.159 63.314 127.56 64.9697 127.326C73.3442 126.647 82.655 114.877 81.6143 108.204ZM55.8556 114.537C56.7005 111.413 59.2121 107.873 61.488 105.69C63.3199 103.893 67.0382 101.03 69.1466 100.18C74.617 97.9995 82.7925 105.236 71.2489 116.934C67.4084 120.839 61.6478 124.866 57.4279 121.409C55.8525 119.244 54.9869 117.724 55.8525 114.537H55.8556ZM58.461 122.725C59.8314 123.349 61.3648 123.52 62.8391 123.214C63.6248 124.175 64.1633 123.993 65.3407 126.043C62.8475 126.377 61.3405 126.114 58.4579 122.725H58.461ZM66.2955 125.864C64.8522 124.466 65.0343 125.031 63.8376 122.949C65.3448 122.399 66.761 121.627 68.039 120.657C69.5069 121.809 69.4216 121.159 71.1705 123.575C69.6936 124.621 68.0423 125.397 66.2939 125.864H66.2955ZM71.9194 123.038C71.4693 122.674 70.7604 122.209 70.2696 121.738C69.7488 121.237 69.2234 120.489 68.8348 120.062C70.4503 118.822 71.929 117.412 73.2459 115.858C74.8274 117.246 74.014 116.071 76.3836 118.793C75.0671 120.379 73.5682 121.803 71.9179 123.038H71.9194ZM76.9304 118.105C74.5908 116.597 75.2407 116.723 73.8727 115.092C75.0756 113.604 76.0823 111.969 76.8682 110.224C79.4797 112.371 78.29 111.48 79.7755 113.125C79.0619 114.909 78.1039 116.585 76.9289 118.105H76.9304ZM80.1096 112.219C78.0357 110.855 78.4751 110.856 77.2415 109.251C77.6519 108.26 77.8449 107.192 77.8076 106.12C77.7702 105.047 77.5033 103.996 77.0249 103.035C78.0419 104.163 79.0002 105.342 79.896 106.568C81.1119 108.155 80.7532 110.306 80.108 112.219H80.1096Z" fill="black"/>
<path d="M57.7276 119.553C59.9259 123.371 66.7235 119.08 69.7644 116.319C80.8395 106.181 73.8621 97.7891 66.583 103.465C65.7857 104.087 59.8007 108.271 64.6689 105.21C67.5515 103.346 70.607 100.723 73.4251 102.982C80.3379 108.304 61.7332 124.81 58.2822 119.201C56.352 116.206 59.0111 111.122 61.3546 108.189C63.1734 105.962 62.9729 106.012 61.1341 107.999C58.4036 111.011 55.7029 116.269 57.7276 119.553Z" fill="black"/>
<path d="M63.9064 112.726C63.9709 112.649 64.0854 112.797 62.381 111.362C62.3042 111.297 61.9378 111.841 60.6443 113.386C60.589 113.451 60.6313 113.343 60.2764 114.872C61.2969 115.817 62.3641 116.709 63.474 117.546C65.3051 116.761 64.2259 117.681 68.2876 112.841C68.3498 112.765 68.3068 112.87 68.6563 111.365C68.6778 111.275 68.836 111.437 66.5924 109.57C66.5156 109.506 66.849 109.21 68.2707 107.512C68.3352 107.436 68.2192 107.389 69.3522 108.331C69.3714 108.347 69.366 108.361 69.3368 108.396L68.5434 109.341C68.4735 109.424 68.3667 109.274 70.0657 110.705C70.1425 110.771 70.4866 110.255 71.7978 108.69C71.9683 108.182 72.0858 107.658 72.1503 107.126C69.4958 104.915 69.0449 104.426 68.9873 104.502C68.9297 104.579 67.6294 105.045 67.5218 105.173C63.8788 109.511 64.1077 109.23 64.09 109.307C63.8481 110.365 63.706 110.702 63.7828 110.766C66.0448 112.68 65.8819 112.477 65.8144 112.557C64.6138 113.991 64.1676 114.637 64.0885 114.57C62.997 113.648 63.0469 113.745 63.1107 113.669L63.9064 112.726Z" fill="black"/>
<path d="M106.899 106.702C107.029 109.636 107.781 114.315 109.291 116.687C111.324 119.88 117.378 122.721 122.755 120.092C129.118 116.981 135.083 113.116 140.524 108.58C143.076 106.6 145.077 103.998 146.336 101.023C148.704 94.9943 144.499 93.1417 137.416 88.2727C138.967 81.9106 136.509 74.1068 133.161 68.6695C129.587 62.8628 122.656 56.3478 119.172 53.8677C114.871 50.8076 105.857 47.2621 100.632 48.0302C97.6987 48.4603 94.8037 50.306 93.9181 53.1357C84.9384 51.4152 79.6201 58.3886 81.8706 63.6969C78.4588 63.0594 75.0984 66.002 74.4102 69.4015C72.8609 77.0648 81.0357 82.7494 84.9461 86.1282C94.6908 94.5496 86.2441 99.1197 106.899 106.702Z" fill="white"/>
<path d="M147.459 97.1985C146.757 92.3434 141.335 90.5223 137.977 87.8916C139.884 80.5126 137.576 73.9208 133.384 67.4973C123.773 52.8467 110.848 46.682 101.536 46.7873C97.382 46.8641 94.6084 49.0147 93.3757 52.0656C85.8591 50.7921 78.5469 56.2378 80.5178 62.9264C76.3225 63.047 72.4091 67.6885 73.658 73.2349C74.6719 77.9203 78.2727 81.2845 81.6055 84.2462C87.8339 89.7765 87.0382 89.9155 91.0291 96.6455C94.2736 102.253 99.4374 106.075 106.001 106.869C106.282 109.085 106.811 111.263 107.578 113.361C110.579 121.333 115.861 123.36 123.494 120.588C131.236 117.67 148.681 106.176 147.459 97.1985ZM145.815 99.4514C144.093 106.949 129.228 116.551 122.898 118.993C115.973 121.576 111.705 119.821 108.864 112.858C108.109 110.957 107.55 108.984 107.196 106.969C111.216 107.167 116.183 105.609 116.089 105.293C115.894 104.581 100.872 110.526 92.5085 95.7814C90.3686 92.0946 89.2779 89.2104 86.0565 85.9883C82.4849 82.3836 73.0935 75.9332 75.5045 68.9605C76.3164 66.5149 78.5822 64.4049 81.1638 64.696C81.2252 64.2075 81.5117 66.0471 84.982 68.8437C86.4767 70.0412 94.3957 76.3096 96.3497 77.7889L97.0617 76.921C86.7378 67.763 84.0188 66.5656 82.5226 63.2989C79.9326 57.8147 86.0266 52.6685 93.0047 53.2285C91.0844 60.8986 98.7369 64.2121 102.099 67.3314L103.288 66.0533C99.9889 63.0109 95.1983 60.9624 94.5654 56.6058C94.3776 55.5951 94.4202 54.5552 94.6901 53.5633C94.9601 52.5715 95.4504 51.6534 96.1246 50.8774C96.7987 50.1014 97.6393 49.4876 98.5837 49.0817C99.5281 48.6758 100.552 48.4883 101.579 48.5331C118.915 48.2689 139.771 71.3976 136.88 86.3493C135.657 91.0062 134.053 94.2007 129.217 98.1955C125.37 101.361 121.359 103.15 121.455 103.359C121.532 103.543 133.24 99.7678 137.592 89.0691C141.289 92.05 147.04 94.1246 145.815 99.4483V99.4514Z" fill="black"/>
<path d="M7.83555 79.7612C8.43159 63.5231 30.8783 43.1533 42.9649 46.2863C44.1795 46.5727 45.292 47.1872 46.1811 48.0628C47.0702 48.9383 47.7017 50.0413 48.0067 51.2513C49.6713 50.3985 51.5129 49.9484 53.3833 49.9371C59.306 50.2197 62.82 57.406 58.8452 62.7765C63.6181 60.6965 68.8887 65.9656 64.9331 72.7048C63.5152 75.1205 61.383 77.023 59.6202 79.2005C53.0914 87.2655 54.0769 96.1554 39.1014 102.59C38.3011 102.935 38.116 103.199 38.3088 104.151C39.1298 108.216 39.0223 112.635 35.8808 115.315C33.4928 117.352 29.9051 116.885 26.7843 116.55L27.6338 117.37C19.108 115.415 4.32307 109.06 2.39901 100.856C1.41662 96.6677 3.27924 91.4331 8.93315 87.7724C8.17886 85.1698 7.80908 82.4709 7.83555 79.7612Z" fill="white"/>
<path d="M66.584 65.4011C66.1639 64.1413 65.3428 63.0537 64.2462 62.3047C63.1495 61.5557 61.8378 61.1865 60.5114 61.2535C64.2129 53.8798 54.8345 45.9393 48.5062 50.2583C42.6388 33.1744 -0.48951 62.4087 8.19144 87.5429C-4.46438 97.2208 1.58587 106.634 15.9069 113.945C22.3589 117.19 31.8102 120.641 36.8896 115.548C39.6977 112.051 39.6824 108.289 39.1532 103.356C51.3343 100.415 54.1532 86.7387 61.7212 78.1845C64.6031 74.8633 68.349 70.4214 66.584 65.4011ZM64.9963 69.8975C64.305 72.6366 62.2558 74.9078 60.4024 77.0408C51.5709 87.0052 49.8166 101.714 34.3856 102.714C28.4967 103.088 24.2031 101.354 24.0832 101.699C23.9688 102.012 30.7326 104.925 38.0118 103.598C38.2822 107.9 38.2875 113.567 34.2481 115.621C27.8208 119.011 13.9406 111.617 8.35351 107.224C1.31857 101.612 0.749419 95.3298 8.61389 88.6635C10.4066 93.0806 13.7155 96.7138 17.9462 98.9106C19.6229 99.8093 18.7435 99.0489 17.2004 97.9121C15.9863 96.9284 14.8352 95.8694 13.754 94.7414C-4.78851 72.0551 32.0921 42.4867 43.6995 47.5192C46.2081 48.5769 47.6936 51.2337 46.9078 53.73C46.2296 55.9291 43.6864 58.8593 42.2762 61.0722L43.7525 62.0039C45.9124 58.5928 49.345 55.3584 48.805 51.481C53.2046 48.4471 60.1366 52.9481 59.5844 58.3555C59.3701 60.9746 57.3623 62.6107 50.792 73.2426L51.7199 73.8747C53.0011 72.1634 59.1657 63.461 59.218 63.3841C62.2512 61.8357 66.342 64.779 64.9963 69.8975Z" fill="black"/>
<path d="M44.3264 23.7533C36.5998 23.5421 29.034 25.9843 22.8891 30.6731C16.7442 35.362 12.3912 42.0145 10.555 49.5228C3.38103 52.0667 -2.11619 56.4463 4.05388 60.8459C8.02721 63.6787 10.6656 63.4344 11.0535 65.1864C11.6495 67.8816 4.1929 74.7737 6.53634 79.0382C7.55022 80.8816 9.99275 81.4 12.0881 81.208C17.3518 80.7264 18.1668 79.2163 24.0749 83.0407C30.49 87.193 37.412 92.6602 45.7351 92.8592C48.7759 92.9321 51.1885 92.5074 53.5811 90.4404C58.4116 86.2613 60.7766 79.9729 62.7828 73.9088C72.0283 45.9596 73.874 24.5598 44.3264 23.7533Z" fill="#FFC5F6"/>
<path d="M69.3247 40.8776C68.8139 36.6408 67.0427 31.2711 63.6477 28.8032C50.8629 20.5424 34.4119 20.1469 20.4734 31.7995C13.9546 37.253 12.7864 42.6143 12.5506 42.0774C10.0159 43.1258 5.64696 40.1418 7.81528 35.0701C8.27803 35.9379 9.03412 36.6131 9.94861 36.9751C10.8631 37.3371 11.8765 37.3624 12.8079 37.0464C17.2628 35.6277 13.7588 27.8477 8.64405 31.0107C8.95128 28.837 10.3976 26.7586 10.095 26.5604C9.86454 26.4068 7.54261 28.7817 7.17623 31.732C7.08098 32.606 7.26763 32.1467 6.84595 32.7389C3.8504 37.0402 5.07934 42.9753 10.3431 44.1658C12.5344 44.6482 11.6189 42.8478 10.2048 49.0217C7.51363 49.9935 4.94044 51.2652 2.53389 52.813C-0.546917 55.1072 -0.195132 57.5997 2.35185 60.3556C4.47105 62.6438 7.28684 64.1678 10.3615 64.6907C10.8992 66.8582 11.2701 64.9718 7.73463 71.2302C5.26138 75.7558 4.56165 81.1509 9.53503 81.9259C12.3086 82.326 15.7343 81.4327 19.3243 80.6693C19.309 80.5925 19.2352 80.5587 19.8359 81.1632C29.3909 90.7835 43.1651 94.2046 49.1209 93.2222C59.4509 91.4033 66.601 66.0855 68.6818 54.3038C69.5334 49.8817 69.7498 45.3608 69.3247 40.8776ZM9.91831 32.5784C12.7526 31.2035 13.8079 35.0263 11.8762 35.3673C11.3564 35.4687 10.8179 35.4051 10.336 35.1856C9.854 34.9662 9.45262 34.6016 9.18786 34.143C9.04229 33.9224 8.92367 33.6852 8.83453 33.4363C9.14163 33.0879 9.50869 32.7973 9.91831 32.5784ZM1.82802 56.529C1.70666 54.5857 4.64537 53.1417 6.32058 52.1777C7.50546 51.5205 8.70932 50.8981 9.9306 50.3113C9.10683 54.7012 9.16454 59.2111 10.1003 63.5785C5.10315 62.0976 1.87871 58.1404 1.82802 56.529ZM7.60713 75.1167C8.18396 73.0168 9.23164 71.3416 11.1795 67.4773C12.747 72.0473 15.2467 76.2419 18.5201 79.7952C11.6127 80.6432 5.65925 82.2815 7.60559 75.1198L7.60713 75.1167ZM48.9642 92.269C40.708 93.6661 23.2792 85.817 16.8496 75.636C6.15774 60.8295 8.79843 36.9089 30.7566 27.1372C40.2809 22.8989 52.0504 23.22 62.8121 29.9961C65.8491 32.1966 67.4567 37.3014 67.9222 41.0566C69.5905 54.5642 59.7282 90.4501 48.9642 92.272V92.269Z" fill="black"/>
<path d="M39.9241 88.6454C32.3085 86.378 24.06 80.7456 20.0306 75.8706C14.8114 69.4032 13.7714 64.181 13.4404 64.2939C13.2683 64.3515 14.3221 67.6013 15.7085 70.3534C17.9979 75.104 21.4804 79.1796 25.8158 82.182C36.4907 90.124 46.1633 90.3468 46.1787 90.0564C44.0634 89.733 41.9734 89.2615 39.9241 88.6454Z" fill="black"/>
<path d="M51.0685 87.2175C51.0709 87.2096 51.0749 87.2072 51.0685 87.2175V87.2175Z" fill="black"/>
<path d="M64.7818 36.7107C64.6743 36.5094 64.5256 36.3332 64.3452 36.1934C64.1649 36.0537 63.9571 35.9537 63.7354 35.8999C63.5137 35.846 63.2831 35.8397 63.0588 35.8812C62.8345 35.9227 62.6215 36.0112 62.4337 36.1408C59.876 37.8006 46.8415 79.5379 49.5106 87.5145C54.113 97.7339 70.3458 47.4063 64.7818 36.7099V36.7107ZM52.9662 85.3561C52.5983 85.8869 51.523 87.208 51.0844 87.2172C48.3823 82.2915 61.6165 32.6828 63.9353 37.1685C67.9709 45.3747 57.8628 78.3412 52.967 85.3561H52.9662Z" fill="black"/>
<path d="M42.5334 68.6574L43.4551 66.2724C80.4502 58.1921 74.8369 58.7759 78.7204 61.094L88.1057 94.9207L86.3552 99.639L54.5263 106.52L52.2021 104.715C43.9359 73.7076 46.2402 82.2718 42.5334 68.6574Z" fill="#FFC5F6"/>
<path d="M49.4779 68.1025C58.4384 100.544 57.7487 98.9798 58.5275 98.8092C85.9937 92.6814 84.6725 93.2444 84.4398 92.4064C75.6513 60.8579 76.3372 62.4264 75.5814 62.5708C48.3334 67.6816 49.2359 67.2277 49.4779 68.1025Z" fill="#FDFE1F"/>
<path d="M79.8634 61.9377C78.4901 56.7063 72.0988 59.3139 65.0515 60.7318C42.5841 65.2513 43.386 64.7259 42.3046 66.4925C41.1824 68.3282 41.1824 66.5378 51.6299 104.974C51.8383 105.742 52.3334 106.4 53.0131 106.814C53.6928 107.228 54.5052 107.365 55.283 107.197C87.1441 100.341 86.2508 101.007 87.1902 99.1248C90.0874 93.3257 89.8516 99.9805 79.8634 61.9377ZM65.3465 62.1989C73.2294 60.6274 77.4923 58.7886 78.4186 62.3172C78.868 64.0285 87.2931 94.6169 87.2931 94.6169C83.7376 95.385 59.8723 100.858 58.2862 101.212C54.7246 101.919 56.75 103.547 46.801 65.9479L65.3465 62.1989ZM46.2449 79.4356C43.0826 67.8374 42.9643 68.2868 43.5819 67.2767C43.7419 67.0101 43.9611 66.7838 44.2226 66.6155C44.484 66.4471 44.7807 66.3412 45.0897 66.3059C45.3032 67.0847 54.7584 100.529 55.1632 101.154C55.0105 102.025 54.7683 102.879 54.4404 103.7C54.1165 104.211 53.755 104.697 53.3589 105.154C53.0578 104.769 53.6032 106.422 46.2449 79.4356ZM85.8514 98.4597C85.3522 99.4582 87.4306 98.7377 54.9681 105.738C54.8505 105.763 54.73 105.775 54.6101 105.773C55.0249 103.484 55.4727 103.726 56.5741 102.156C57.3922 102.358 86.7601 96.5041 86.8369 96.488L85.8514 98.4597Z" fill="black"/>
<path d="M51.6939 77.2268C54.4429 89.4394 60.1974 105.605 57.1243 94.5749C54.1518 83.8946 49.0532 65.4988 51.6939 77.2268Z" fill="black"/>
<path d="M56.7004 66.4636C67.2332 64.1463 75.5739 62.7 75.5439 62.4695C75.4771 61.9933 66.1609 63.6601 64.3406 64.0388C56.917 65.5865 48.6216 68.2387 56.7004 66.4636Z" fill="black"/>
<path d="M82.778 93.0001C81.5746 90.6876 79.7442 88.7606 77.4966 87.4399C80.2103 85.8984 77.5688 79.958 76.0487 78.6C75.6962 78.2843 75.9435 78.0485 76.356 77.7981C77.5496 77.0676 77.9398 75.1996 76.6156 73.4568C75.6678 72.2095 74.7852 72.4414 73.6615 73.433C73.3543 72.3577 71.7536 71.999 71.4824 71.499C71.189 70.9559 72.1177 70.3154 71.9226 68.6087C71.7037 66.6884 69.7005 68.0825 68.9324 69.4351C69.0287 68.8491 68.9612 68.2478 68.7373 67.6977C68.4984 67.114 68.172 67.0832 67.6021 67.3236C66.4269 67.8183 65.1012 68.4934 65.1902 69.8353C65.2294 70.4221 65.3439 69.8046 62.8975 66.2614C62.6371 65.8827 62.2431 65.4541 61.8183 65.7237C60.7737 66.3889 62.4328 69.3107 60.7061 68.7339C59.2998 68.2638 59.0117 67.889 58.5632 67.8966C58.0324 67.9043 57.6968 68.495 57.6499 69.0234C57.6008 69.5918 58.08 72.0082 56.0953 70.936C54.7726 70.2216 53.6374 70.7823 54.7189 72.1649C55.8594 73.6396 57.1356 75.0041 58.5309 76.2404C55.2281 76.7066 54.8118 80.3374 56.9947 81.4903C57.6985 81.7769 58.4462 81.9411 59.2053 81.9757C59.6285 82.0372 59.7245 82.1585 59.8297 82.5779C60.5087 85.2762 62.0925 87.794 64.797 88.3386C65.5367 88.4868 65.3992 88.9485 64.8484 89.3072C61.8299 91.2681 59.8674 94.991 60.5272 98.5242C67.2752 97.3811 73.955 95.8661 80.5359 93.9864C81.7257 93.6499 83.1728 93.8512 82.778 93.0001Z" fill="white"/>
<path d="M84.6024 92.9918C84.0794 92.9726 83.5564 93.0319 83.0509 93.1677C82.0255 90.5839 80.4693 88.4616 77.9047 87.4531C79.4324 86.0214 79.2104 84.5736 78.4493 82.651C78.3724 82.6818 78.407 79.6739 76.1312 78.2315C76.854 77.812 77.3833 77.1257 77.6054 76.32C77.8275 75.5144 77.7245 74.6538 77.3186 73.9232C76.4945 72.3525 74.6395 71.9462 73.7378 72.9915C72.9897 71.609 72.1248 71.7541 71.8406 71.4062C71.4773 71.0444 72.3391 70.4077 72.336 69.1019C72.3176 67.0796 70.4926 66.9659 69.236 68.5935C69.4926 67.1279 68.1138 66.3299 66.6161 67.2478C65.9763 67.7472 65.4483 68.3752 65.066 69.0912C63.7196 66.6978 62.6988 65.0065 61.7894 65.4812C60.8677 65.9628 61.5981 68.5067 61.0413 68.4875C60.1725 68.4475 59.3714 67.237 58.1594 67.5819C56.9059 67.9444 57.5272 69.9545 57.4351 70.5644C57.3314 71.2472 55.5102 70.112 54.5348 70.3846C52.7628 70.9039 54.7806 72.7657 57.9021 76.2298C53.6069 76.7721 54.822 82.5965 59.3614 82.3292C59.9951 85.4308 61.764 88.1897 64.8295 88.9755C61.6903 90.7943 59.2624 94.7055 60.1057 98.274L60.0927 98.2786L60.1418 98.4322C51.3541 100.971 84.7553 93.6109 84.6024 92.9918ZM76.9776 84.327C76.0805 85.069 74.7801 85.2841 73.7086 85.6374C66.3027 87.8487 66.3488 88.2857 73.8922 86.3018C75.5351 85.8578 77.4884 85.5083 78.1935 83.9268C78.9378 86.7419 76.5544 87.8541 73.6932 88.5354C71.359 89.0423 69.2076 89.6975 67.1645 88.2481C65.1229 86.7672 65.6529 83.3623 67.6729 81.0542C67.6556 81.3246 67.7112 81.5947 67.8338 81.8362C67.9565 82.0778 68.1418 82.282 68.3704 82.4275C69.2614 82.9299 70.6524 82.0189 71.2346 82.4583C71.6486 82.7348 71.912 83.5966 72.0795 83.4821C72.0951 83.221 72.0581 82.9594 71.9707 82.7128C71.8834 82.4662 71.7475 82.2397 71.571 82.0466C70.8966 81.3829 69.8705 81.9167 68.8558 81.8284C68.395 81.7117 68.0524 80.7577 69.1277 79.9696C70.4289 79.1194 71.9118 78.5871 73.4567 78.4158C74.0089 78.3605 75.042 78.5249 75.1234 79.0303C75.3016 79.6732 74.2386 80.1586 73.7255 80.8099C73.2124 81.4613 73.3806 81.9882 73.6487 82.7056C73.7501 82.9268 73.81 83.0504 73.8622 83.0451C73.9144 83.0397 73.9452 82.8915 73.9321 82.6372C73.8822 81.6648 73.7017 81.4997 74.7862 80.7385C75.4084 80.2776 76.0543 79.7461 75.85 78.8582C75.7955 78.6094 75.5774 78.3812 76.0758 78.8444C77.3424 79.9911 78.4999 83.1096 76.9776 84.327ZM66.9156 81.2547C66.3846 81.3227 65.8455 81.2242 65.3729 80.9726C64.9003 80.7211 64.5174 80.3291 64.2772 79.8506C64.3993 79.7914 65.2596 79.3022 65.9839 78.9934C65.9071 79.1263 65.9271 79.1109 66.2097 79.7023C66.3733 80.0465 67.4694 79.4481 67.3212 79.1378C67.1483 78.7737 67.1245 78.6647 67.0477 78.6155C68.3128 78.2606 68.5655 78.4834 68.9342 78.1016C69.0816 78.988 69.0532 79.1002 68.6876 79.3605C68.3005 79.6171 67.9963 79.9789 67.8089 80.4036C66.9018 81.2001 67.0032 81.31 66.9141 81.2554L66.9156 81.2547ZM73.5634 74.4809C74.1579 75.0577 74.0012 75.7221 73.6402 75.7567C72.4021 75.9034 71.2092 76.3097 70.1393 76.9503C68.4441 77.9304 69.8182 77.3958 68.7022 76.2674C68.7507 75.87 68.8807 75.4869 69.0843 75.142C69.2878 74.7972 69.5603 74.4982 69.8849 74.2637C70.2094 74.0291 70.5789 73.8642 70.9701 73.7792C71.3614 73.6942 71.766 73.6909 72.1586 73.7696C72.6833 73.8747 73.1688 74.1224 73.5619 74.4855L73.5634 74.4809ZM73.4498 77.6608C70.5717 77.9058 69.5325 79.1969 69.5079 78.6808C69.4518 77.4795 68.6868 78.137 70.3236 77.2982C71.6655 76.6069 71.2668 76.8374 71.3575 77.004C71.6463 77.5371 71.6025 77.6953 72.2953 77.4918C73.0695 77.2683 72.6571 76.7798 72.4774 76.4533C73.2946 76.2475 73.6886 76.2936 73.9575 76.1561C73.9414 76.6974 73.7641 77.2216 73.4482 77.6615L73.4498 77.6608ZM68.6876 77.1922C68.8758 77.9811 68.2521 77.8236 67.355 78.0371C65.2619 78.5256 64.1344 79.6294 63.8617 79.5418C63.5637 79.465 63.4538 78.6539 63.4446 78.3398C63.5325 77.7061 63.8255 77.1186 64.2788 76.6671C64.7321 76.2156 65.3207 75.925 65.9547 75.8396C66.3755 75.7836 66.8034 75.8195 67.209 75.9449C67.5356 76.0227 67.8393 76.1762 68.0956 76.393C68.3519 76.6098 68.5536 76.8839 68.6845 77.193L68.6876 77.1922ZM74.883 73.0983C76.8447 72.9708 78.0606 76.5086 75.5996 77.958C75.2742 77.8265 74.9267 77.7585 74.5758 77.7575C73.83 77.5555 74.0381 77.8697 74.234 77.2775C74.3958 76.8115 74.4224 76.3093 74.3108 75.8289C74.3699 75.7321 74.4122 75.6253 74.4368 75.5147C74.4885 75.6223 74.5763 75.7082 74.685 75.7575C74.7937 75.8068 74.9163 75.8163 75.0312 75.7843C75.1188 75.7244 75.3385 75.9379 75.3254 76.1238C75.3024 76.5209 74.8646 76.9372 74.9782 77.0378C75.0927 77.1746 75.7894 76.7821 75.8232 76.1238C75.8296 76.005 75.8089 75.8863 75.7628 75.7767C75.7166 75.667 75.6461 75.5693 75.5566 75.4909C75.4675 75.4125 75.3618 75.355 75.2475 75.3229C75.1332 75.2907 75.0131 75.2846 74.8961 75.305C74.7148 75.1937 75.2932 74.636 75.635 74.921C76.019 75.2451 76.0858 75.05 75.9115 74.7021C75.6042 74.0876 74.6948 74.3618 74.4237 74.9809C74.327 74.6018 74.1087 74.2648 73.8023 74.0216C73.8709 73.779 74.0099 73.5623 74.2018 73.3988C74.3936 73.2352 74.6296 73.1323 74.8799 73.1029L74.883 73.0983ZM55.4334 72.3202C54.4941 71.1681 54.5194 71.1489 54.7521 71.0913C55.3943 70.9254 56.5771 71.7134 57.5772 71.4193C58.8061 71.0214 57.4965 68.4629 58.3675 68.2148C59.2385 67.9667 60.0689 69.1826 61.1803 69.0881C61.8216 69.042 61.8562 68.5504 61.8485 67.896C61.8362 66.853 61.6849 65.3867 62.5014 66.0941C62.9254 66.4505 65.3433 70.5644 65.5922 71.778C65.6414 72.0176 66.4125 71.4584 58.9098 75.9587C58.674 76.0355 58.7347 76.0309 57.8821 75.0923C57.9589 75.0462 64.3571 70.9715 64.2803 70.8294C64.2181 70.7103 62.5321 71.4807 60.6219 72.7258C57.0795 75.0254 58.0734 75.3012 57.2169 74.3603C56.6022 73.6976 56.0064 73.0176 55.4304 72.321L55.4334 72.3202ZM59.8884 82.2662C61.2333 81.9936 61.7894 80.9251 61.4837 80.9036C61.4391 80.9036 61.4345 80.9351 61.4422 80.9413C61.5459 80.9467 61.0228 81.3699 60.7309 81.5127C60.1445 81.7358 59.513 81.8142 58.8898 81.7415C58.2667 81.6687 57.6702 81.447 57.1509 81.0949C56.6269 80.7447 56.2539 80.2101 56.1061 79.5974C55.9582 78.9848 56.0463 78.3389 56.3528 77.7883C57.0019 76.8758 58.5657 76.6492 59.6303 76.9472C60.3216 77.1976 60.9437 77.6085 61.4468 78.1454C61.5851 78.0809 61.0689 76.8566 59.6364 76.3896C60.3446 75.9694 64.6398 73.2796 66.0315 72.4639C66.3488 72.278 66.2758 71.7726 66.2328 71.6359C65.6321 69.1841 64.9163 70.4791 66.0792 68.8761C66.5853 68.191 67.0278 67.6426 67.9226 67.6011C68.8074 67.5757 68.663 68.5666 68.3742 69.4023C68.0155 70.3923 67.9464 71.0744 68.0478 71.0921C68.1561 71.152 68.5716 70.324 69.4411 69.2102C70.4335 68.0112 71.6424 67.6134 71.601 69.0958C71.5902 69.9991 71.0172 70.4423 71.0095 71.1635C70.9911 72.1205 72.0495 72.3156 72.3022 72.4639C72.7767 72.7545 73.1449 73.1903 73.3522 73.7066C72.8904 73.4255 72.3666 73.262 71.8269 73.2306C71.2871 73.1991 70.7479 73.3005 70.2565 73.5261C69.7652 73.7516 69.3366 74.0943 69.0086 74.524C68.6805 74.9538 68.463 75.4575 68.375 75.9909C67.9053 75.6391 67.3501 75.4191 66.7669 75.3536C66.1837 75.2882 65.5936 75.3797 65.0576 75.6187C64.5216 75.8577 64.0591 76.2355 63.718 76.713C63.377 77.1906 63.1696 77.7506 63.1174 78.3351C63.0967 79.0318 63.3186 79.9681 63.9277 79.9481C64.0973 80.5079 64.4594 80.9897 64.95 81.3081C65.4406 81.6265 66.0281 81.761 66.6084 81.6879C64.5399 84.4568 65.1321 87.3717 66.5001 88.593C62.9 88.2934 60.9698 85.7311 59.8884 82.267V82.2662ZM60.6457 98.294C60.108 94.6655 62.5897 91.0132 65.6014 89.1284C66.1713 89.2021 66.7474 89.2121 67.3196 89.1575C68.1959 89.6308 69.1788 89.8717 70.1746 89.8573C71.6117 89.8573 75.7356 89.0585 77.4177 87.8533C79.9885 89.1245 81.1045 90.7943 82.5347 93.2599C77.1005 94.2615 65.3656 96.9775 60.6457 98.2963V98.294Z" fill="black"/>
<path d="M78.4921 92.3198C76.7408 90.7629 74.0717 91.2268 71.7843 91.6462C66.185 92.6701 65.8962 96.6519 66.1942 96.7049C66.6112 96.7817 66.7894 93.3253 71.928 92.3805C73.9803 91.9965 76.1986 91.5832 78.1818 92.7484C78.7601 93.0818 79.0581 93.4051 79.1511 93.3383C79.2287 93.2915 79.0704 92.8252 78.4921 92.3198Z" fill="black"/>
<path d="M60.346 79.0848C58.2891 76.6123 56.5908 79.783 57.2161 79.8053C57.3374 79.8168 57.8098 78.3835 59.1155 78.7345C58.3951 78.8114 58.2937 79.7484 58.7123 80.2484C59.1732 80.8122 59.9067 80.5595 59.8445 80.4282C59.8183 80.336 58.8874 80.2991 58.9704 79.4988C59.0011 79.1009 59.25 79.2684 59.4443 79.2323C60.621 79.1708 60.4497 79.2138 60.346 79.0848Z" fill="black"/>
<path d="M57.1237 43.2034C56.2036 41.9812 55.632 40.5325 55.4697 39.0113C55.3074 37.4902 55.5605 35.9535 56.202 34.5647C56.9355 33.0285 60.554 27.681 64.0895 25.9452C66.6296 24.6978 69.4907 23.5326 72.2167 24.2938C74.9426 25.0549 79.1341 28.6911 79.4621 32.3387C79.6049 33.931 78.5189 35.3827 77.8491 36.8344C75.7061 41.4203 71.8844 45.0086 67.1726 46.8587C61.9857 48.865 60.0355 46.967 57.1237 43.2034Z" fill="#92FCFF"/>
<path d="M79.967 31.7272C79.8602 30.7963 79.4823 29.9172 78.8801 29.1994C77.5851 27.3813 75.8623 24.779 73.7577 23.9902C67.3741 21.5976 59.3368 27.8859 56.0064 33.8379C54.4479 36.7113 54.4303 38.4856 54.8305 40.3935C55.9405 43.0776 57.6707 45.4605 59.8791 47.347C61.0866 48.0752 62.491 48.4089 63.897 48.3018C71.4105 47.9899 80.6921 37.9318 79.967 31.7272ZM55.6784 38.0816C56.0717 31.9261 64.4953 24.0102 71.3567 24.5593C75.1272 24.832 76.5613 27.6317 75.6703 30.8162C74.1118 37.0155 62.5651 47.609 57.1194 42.4098C56.0187 40.6977 55.5694 39.809 55.6784 38.0816ZM60.5827 46.3885C59.6542 45.6275 58.8198 44.7586 58.0971 43.8C59.2801 44.415 60.6278 44.6388 61.946 44.439C62.5651 45.2909 63.1704 45.2563 64.046 47.0751C62.8489 47.1969 61.6427 46.9578 60.5827 46.3885ZM64.9884 46.953C63.7165 45.625 63.8363 46.0758 62.9415 44.2155C64.3101 43.8015 65.6136 43.1967 66.8134 42.419C68.0332 43.5796 67.8888 42.8199 69.4303 45.158C68.0687 46.0167 66.5644 46.6247 64.9884 46.953ZM70.1946 44.6756C68.1614 43.038 68.9211 43.6771 67.6361 41.8821C69.1454 40.8517 70.5439 39.6676 71.8091 38.3489C73.247 39.7191 72.6333 38.6561 74.4206 41.0771C73.159 42.4394 71.7405 43.6473 70.1946 44.6756ZM74.9851 40.4419C73.0795 39.1001 73.5565 39.1177 72.4789 37.6253C73.6285 36.3568 74.6124 34.9473 75.4068 33.4308C77.2956 35.1152 76.4768 34.3479 77.7833 36.0945C77.0552 37.6656 76.1136 39.1285 74.9851 40.4419ZM78.1451 35.2427C76.4361 34.0084 76.7395 33.8502 75.8408 32.4922C76.5365 30.9948 76.7211 29.3103 76.3662 27.6978C78.8494 30.9399 79.4608 31.847 78.1451 35.2427Z" fill="black"/>
<path d="M59.3837 42.3025C60.9199 42.7081 62.5974 41.9892 64.1705 41.294C67.3468 39.878 70.1106 37.677 72.2016 34.8982C73.6226 33.0217 74.9161 30.2896 74.4383 28.1989C74.0412 26.4499 72.0111 25.019 69.3858 25.6073C65.7604 26.4522 62.7971 29.0776 62.8931 29.1943C63.0222 29.3479 65.5646 26.9215 69.4872 26.1266C71.8383 25.6757 73.5012 26.9354 73.7962 28.344C74.2025 30.2343 72.886 32.8028 71.6179 34.4542C69.5847 37.1247 66.9186 39.247 63.8602 40.6296C61.8754 41.4914 59.1963 42.6351 58.0718 40.4883C57.22 38.9314 57.76 36.7615 58.4858 35.1393C60.2248 31.2935 62.9408 29.427 62.8079 29.2611C62.4515 28.8295 55.0248 36.0541 57.4904 40.7963C57.6782 41.1695 57.9447 41.4974 58.2716 41.7574C58.5985 42.0175 58.9779 42.2035 59.3837 42.3025Z" fill="black"/>
<path d="M63.8185 30.696C63.6649 30.8004 63.7348 30.7874 63.2517 33.0079C63.1749 33.3528 62.9598 33.0256 67.1689 36.578C67.3003 36.6894 67.4316 36.5434 67.467 36.3729C67.9317 34.1416 68.0046 34.0917 67.8418 33.9534C63.6042 30.3926 63.9583 30.6007 63.8185 30.696Z" fill="black"/>
<path d="M68.9757 33.0024C70.6855 32.3165 71.439 32.1437 71.1218 31.871C66.9602 28.3232 67.2729 28.4914 66.9741 28.6097C64.775 29.4899 64.8534 29.4039 64.7812 29.5591C64.6783 29.781 66.8066 31.285 66.7406 31.3618C68.8551 33.1368 68.6777 33.1222 68.9757 33.0024Z" fill="black"/>
<path d="M62.2088 34.2744C59.9652 35.1654 60.0582 35.0809 59.986 35.2345C59.9245 35.3667 59.6119 35.0471 63.8741 38.6702C64.0123 38.7877 63.9862 38.747 66.2052 37.8791C66.3588 37.8176 66.4694 37.6617 66.3527 37.5688C62.4093 34.3712 62.6006 34.1193 62.2088 34.2737V34.2744Z" fill="black"/>
<path d="M72.2242 55.091C72.7069 53.4312 72.7307 51.6716 72.2932 49.9992C71.8557 48.3269 70.9731 46.8044 69.7394 45.5936C68.3499 44.2656 62.3842 40.0634 57.9531 39.6417C54.7693 39.3406 51.2791 39.2576 48.7037 41.1494C46.1283 43.0412 43.1535 48.5661 44.2672 52.5517C44.7534 54.2915 46.4824 55.3937 47.772 56.6572C51.8739 60.6458 57.3506 62.9073 63.0716 62.9747C69.3538 63.0208 70.6527 60.2342 72.2242 55.091Z" fill="#92FCFF"/>
<path d="M73.452 51.2123C73.1102 49.0424 72.3967 47.2029 69.6116 44.7987C63.7257 39.8446 52.7528 36.4442 46.9998 41.5021C45.1056 43.1673 44.3291 46.6153 43.697 49.024C43.3502 50.0108 43.3031 51.0782 43.5618 52.0918C45.2462 58.7933 58.9904 65.8014 67.0822 63.1177C68.4164 62.6983 70.2314 61.6637 70.9058 60.5338C72.4764 57.6704 73.3488 54.4766 73.452 51.2123ZM49.6881 41.0236C57.8045 37.1946 73.2769 44.6728 72.2976 52.4512C70.8943 62.6515 52.2504 56.0981 47.6273 49.4503C45.449 46.4862 45.6948 42.8716 49.6881 41.0243V41.0236ZM45.7025 46.1022C45.906 48.068 46.8004 49.8978 48.2264 51.2661C47.7494 53.2324 48.1258 53.1371 46.8154 55.2033C44.0165 52.1202 44.2277 50.7676 45.7025 46.1022ZM47.4691 55.8884C47.6503 55.3124 47.8293 54.4529 48.0835 53.7954C48.314 53.2024 48.7049 52.5296 48.9653 52.0003C50.4362 53.3153 52.0718 54.4333 53.8311 55.3262C53.3135 57.0928 53.7866 57.0359 52.2412 59.4178C50.4936 58.4698 48.8873 57.2818 47.4691 55.8884ZM53.0131 59.821C54.1361 56.1695 53.8473 57.7165 54.7214 55.7655C56.6155 56.6725 58.6 57.3774 60.6418 57.8686C60.4536 58.43 60.2693 59.361 59.9874 60.0561C59.727 60.7013 59.2639 61.4325 58.9958 61.9617C56.9243 61.4893 54.9168 60.7707 53.0162 59.821H53.0131ZM59.8998 62.1484C60.5535 59.0898 60.7171 59.8287 61.6188 58.0836C63.2341 58.4392 64.8917 58.5591 66.5415 58.4393C66.2496 61.0753 66.1575 60.4516 65.4439 62.2797C63.6039 62.5672 61.7272 62.5225 59.9029 62.1476H59.8998V62.1484ZM66.3948 62.0539C66.6398 59.682 67.2827 59.3863 67.5615 58.2948C69.1353 57.9692 70.5516 57.1182 71.5779 55.8815C70.3297 60.2243 68.9679 61.3196 66.3979 62.0539H66.3948Z" fill="black"/>
<path d="M48.9773 48.5808C51.6187 52.6394 59.3465 56.4061 66.8062 55.8646C73.3311 55.3714 71.9439 47.3633 62.7729 43.3447C60.1514 42.2248 60.0662 42.317 62.65 43.6089C65.4682 45.056 68.7779 47.4924 69.8778 50.4449C73.6214 61.2819 44.4417 51.6915 49.051 44.0183C50.664 41.2816 55.1957 41.5451 58.3219 42.1273C61.9058 42.8316 60.1307 42.2909 58.3856 41.8431C49.7523 39.6909 46.0286 44.069 48.9773 48.5808Z" fill="black"/>
<path d="M61.333 52.1438C61.3457 52.1722 61.3684 52.1949 61.3967 52.2076C61.425 52.2204 61.457 52.2223 61.4867 52.213C63.138 51.9956 66.5176 51.5532 66.5468 51.5486L63.6189 47.2557L61.7409 47.5046C63.7064 50.4525 63.6918 50.2098 63.4714 50.239C62.5228 50.3619 60.4213 50.6276 60.3145 50.6384C60.4505 50.8534 60.5803 51.0263 61.333 52.1438Z" fill="black"/>
<path d="M56.3791 46.9508C57.3515 46.8264 59.4875 46.5468 59.569 46.5361L58.5059 44.9722L53.3643 45.6436L56.2877 49.9264L58.1641 49.6783C57.5566 48.7374 56.2255 46.9708 56.3791 46.9516V46.9508Z" fill="black"/>
<path d="M60.3539 47.6774L58.466 47.9239L59.5436 49.4993L61.43 49.2558L60.3539 47.6774Z" fill="black"/>
<path d="M59.9989 52.3888L58.942 50.8373L57.0786 51.0785L58.1401 52.6277L59.9989 52.3896V52.3888Z" fill="black"/>
<path d="M61.8162 44.6022C61.7471 44.5001 61.8493 44.5254 59.939 44.7743C59.8622 44.7835 59.7854 44.6306 60.9598 46.3535C61.065 46.3473 61.784 46.2475 62.771 46.123C62.8847 46.1077 62.8908 46.1899 61.8162 44.6022Z" fill="black"/>
<path d="M137.451 70.098C135.745 66.5141 133.936 65.1231 133.719 64.4633C133.433 63.5954 134.551 61.2888 134.866 57.9875C135.02 56.4076 134.384 54.7992 134.992 53.2584C135.328 52.5779 135.719 51.925 136.16 51.3059C138.654 47.1052 136.46 42.7801 132.269 40.7324C129.562 39.4105 131.515 39.7677 126.721 34.2943L127.162 34.4172C123.081 30.6535 122.484 30.0997 122.147 29.5467C121.295 28.1518 121.772 26.4505 118.685 20.4517C119.157 22.4349 117.748 17.6359 114.425 16.8479C111.005 16.0368 107.786 19.4594 102.267 24.0587C96.7926 23.5756 96.3878 25.9689 92.678 24.3029C87.4926 21.9749 83.4156 18.7043 80.1289 23.3098C79.1642 24.6616 78.3339 26.7608 77.4467 27.9406C77.3192 28.8831 75.1563 30.8924 74.4658 31.5307C72.6047 33.2504 71.2398 34.6161 70.5762 37.4281C70.7705 38.0479 70.6438 40.9037 71.4211 42.1134C71.918 42.8869 72.9526 43.698 72.9058 45.1335C72.8351 47.2911 71.7298 46.8425 72.511 50.3374C73.882 56.4721 77.1456 60.1013 77.3692 62.3272C78.0889 62.7167 77.8945 63.7436 77.5466 64.7529C77.5911 65.5202 77.5973 66.289 77.5643 67.0571C78.5428 68.6217 79.8309 70.2532 80.324 71.88C80.9277 73.8732 79.2786 75.7143 80.3148 77.6913C80.9369 78.6805 81.6248 79.6266 82.374 80.5233C83.4555 81.9566 83.2827 82.3007 83.136 84.1287C82.9117 86.9192 83.3603 87.5083 85.0209 89.7488C85.4978 90.2683 85.9344 90.8234 86.3266 91.4094C87.0617 91.593 87.776 91.8503 88.4596 92.1775C89.919 92.7513 91.2562 92.5124 92.7125 92.7812C94.3071 93.0754 93.9084 93.1123 94.9922 94.5056C96.4286 96.3529 98.6606 97.4658 100.794 98.2984C103.658 99.416 106.025 99.3937 108.048 94.6508C109.114 92.1522 108.053 91.0638 108.529 90.2857C109.074 89.3932 111.204 89.1828 112.101 88.9032C113.102 88.542 114.05 88.0497 114.92 87.4392C125.729 80.5026 126.266 78.4218 128.003 78.3089C128.608 78.2697 129.02 78.6069 129.6 78.6883C131.365 78.7736 133.119 78.371 134.669 77.5247C138.514 75.5299 138.899 73.135 137.451 70.098Z" fill="#FFC5F6"/>
<path d="M105.946 88.0384C101.126 89.252 94.4242 90.9226 89.4785 89.583C87.5982 89.0738 91.4985 89.9671 96.0687 89.4294C108.985 87.9209 119.677 81.2262 125.294 73.6659C129.043 68.6196 128.849 67.598 129.063 67.6748C128.949 68.3098 128.736 68.9229 128.431 69.4913C124.427 78.3359 114.225 85.4162 105.946 88.0384Z" fill="black"/>
<path d="M90.6932 31.0929C85.5662 35.8796 84.8235 36.8904 84.2766 34.4448C83.704 31.4745 83.6655 28.4259 84.1629 25.442C84.3042 25.1248 84.5032 24.9919 84.4663 24.9251C84.4494 24.8729 84.1637 24.8698 83.8396 25.2262C82.7996 26.3706 82.0453 35.7214 84.653 36.6538C85.7705 37.0532 86.607 36.3297 91.3661 31.8287C92.1918 31.0483 93.3201 30.2925 93.221 29.0812C92.9944 26.3161 85.1515 23.8582 85.2966 24.7523C85.3051 24.8951 86.1546 24.9981 87.4288 25.6118C94.228 28.8854 92.2402 29.6488 90.6932 31.0929Z" fill="black"/>
<path d="M123.292 54.2438C123.241 56.0028 120.613 56.926 118.105 51.4157C117.32 49.6898 117.605 48.4924 117.732 48.5216C117.948 48.5561 117.615 49.2897 118.664 51.1423C119.301 52.2691 120.361 54.1255 121.614 54.6471C122.821 55.0473 122.43 53.6778 121.947 52.4964C121.526 51.4664 120.079 47.7496 118.969 47.6859C118.032 47.6321 117.847 48.4371 117.754 48.4002C117.6 48.4225 117.754 47.3187 118.961 47.1943C120.788 47.0054 123.331 52.9235 123.292 54.2438Z" fill="black"/>
<path d="M129.321 51.3006C129.029 52.9973 127.587 53.0273 126.779 51.8498C126.584 51.5679 124.891 48.2628 124.852 46.6429C124.841 46.1759 124.944 45.9271 125.001 45.9363C125.176 45.9639 124.888 46.2235 125.845 48.2905C126.808 50.0816 127.689 52.2961 128.227 51.7261C128.687 51.2875 128.358 49.8912 128.296 49.5839C126.94 42.8355 125.2 45.6667 125.07 45.606C124.656 45.606 126.002 43.7288 127.375 45.2135C128.6 46.5269 129.516 50.1638 129.321 51.3006Z" fill="black"/>
<path d="M138.608 71.3154C137.904 69.0956 136.172 66.8274 134.318 64.292C135.139 60.8779 135.417 57.3557 135.14 53.8552C140.046 48.2727 137.528 41.6694 131.683 39.9212C129.498 35.689 126.25 32.0976 122.258 29.4998C121.931 25.7982 120.634 22.2482 118.498 19.2074C114.572 13.777 111.223 15.6573 106.412 19.4102C99.3383 25.0049 103.815 23.67 98.8697 23.9227C98.7929 23.9273 94.5538 24.2253 94.5623 24.3021C91.92 22.4464 86.4528 19.5668 83.0033 20.3311C79.3295 21.0992 77.5637 25.8068 76.5329 29.4383C69.8305 33.3064 68.8412 40.1916 71.7984 43.575C72.0357 43.8492 72.4374 44.2609 72.3652 44.4967C71.7107 45.3863 71.3306 46.4478 71.2715 47.5507C71.0979 52.3558 75.7994 59.741 76.1104 59.9845C76.8785 60.4369 76.9285 61.427 76.8854 62.318C76.655 67.0632 76.3555 68.3168 78.8948 70.5703C81.8988 73.1196 77.0821 74.9815 81.0761 80.0947C80.9993 80.1569 81.7198 80.7452 82.3166 81.8467C83.6992 84.0964 81.6407 86.4552 84.6585 90.394C85.5206 91.5615 86.7375 92.4187 88.1272 92.8373C89.9192 93.2559 91.7518 93.4786 93.5922 93.5009C97.4188 99.2961 105.521 102.872 108.445 96.044C109.152 94.3557 109.421 92.5164 109.227 90.6966C114.355 89.1489 122.189 84.5596 126.604 79.5232C127.235 78.8035 126.923 78.898 127.646 78.9855C134.187 79.3004 140.549 77.5192 138.608 71.3154ZM105.998 97.2315C103.273 99.9913 97.8182 96.8021 94.9287 93.4894C99.3674 93.3358 103.962 92.2167 108.194 91.0023C108.104 94.0508 107.026 96.1869 105.998 97.2315ZM105.961 90.2181C81.1622 97.4996 84.6408 85.4144 83.9995 82.5249C86.3606 83.7822 88.6587 83.6471 88.6595 83.3698C88.6856 82.9857 85.7408 82.9043 82.9633 80.3282C81.3857 78.0308 80.4417 77.5776 80.9663 75.0037C81.2735 73.4438 81.7344 72.0635 80.9018 70.6349C80.3273 69.6863 79.5446 69.2991 78.9639 68.6079C76.9346 66.1131 79.9394 61.0138 77.1174 58.8516C76.9315 58.7402 77.1427 59.016 76.0559 57.095C70.3475 47.0038 73.6787 45.8447 73.747 44.5428C75.5328 41.6625 75.1473 41.5964 73.4175 43.4268C73.0335 42.8308 71.4489 41.6202 71.5065 38.8528C71.5526 36.1392 72.9098 33.1812 76.1627 30.8724C75.545 33.4534 75.2649 36.1037 75.3293 38.7568C75.7325 46.0037 85.2738 41.0319 84.7276 40.4159C84.5902 40.2047 81.7014 41.6871 78.9723 41.4144C76.4292 41.1502 76.7234 39.319 76.8839 35.9986C77.1911 31.7587 79.1882 22.6791 83.332 21.7989C86.0081 21.1944 90.3055 23.4165 92.493 24.7438C95.2966 26.4996 97.2106 28.0227 94.8365 31.6911C93.5768 33.6068 91.1589 36.2459 93.5253 34.4486C96.5762 32.1182 98.6009 28.5105 96.1038 25.6348C104.246 24.753 105.642 24.9174 105.667 24.6193C105.684 24.4388 104.669 24.1585 102.957 23.9964C104.319 22.7543 105.744 21.5835 107.227 20.4885C111.639 17.281 114.057 15.6066 117.31 20.0646C119.19 22.6746 120.492 25.6547 121.131 28.807C120.069 28.171 118.965 27.6079 117.826 27.1218C117.519 25.3383 116.674 22.7375 115.404 21.4871C114.665 20.7789 113.868 20.8603 113.858 21.0201C113.842 21.2689 115.049 20.7405 116.785 26.6901C114.995 26.0021 113.147 25.4712 111.264 25.1032C113.317 20.0262 113.751 21.5823 113.775 21.0162C113.783 20.8695 113.193 20.6859 112.526 21.143C111.483 21.8588 110.677 23.723 110.343 24.9435C109.83 24.8667 107.001 24.5172 106.975 24.7461C106.885 25.5065 121.793 25.8076 129.767 39.5456C124.313 38.9788 116.091 41.9521 116.315 42.4275C116.405 42.6349 127.201 38.8221 132.457 41.5465C133.853 42.1795 134.987 43.2763 135.665 44.6507C136.344 46.0251 136.526 47.5921 136.18 49.0853C134.555 55.3376 125.629 59.1857 118.447 59.6043C110.496 60.165 106.296 53.6762 110.612 47.2742C112.542 44.3907 115.402 43.1511 115.275 42.9214C115.203 42.7678 112.009 44.0459 109.933 46.7864C106.304 51.5486 107.263 57.8469 113.159 60.2219C112.391 63.275 116.224 66.9434 121.129 66.6469C125.718 66.3597 128.408 62.318 127.864 58.9414C130.196 57.9801 132.334 56.6004 134.17 54.8706C134.353 70.6095 124.567 84.8983 105.958 90.2181H105.961ZM126.871 59.3409C126.756 64.5585 120.327 66.9903 115.888 63.6675C115.363 63.3294 114.927 62.8699 114.618 62.3279C114.308 61.7859 114.134 61.1773 114.109 60.5537C117.915 61.6743 123.233 60.7073 126.868 59.3386L126.871 59.3409ZM137.13 74.7126C135.925 77.3503 130.989 77.7543 127.885 77.9256C130.646 74.2565 132.705 70.1081 133.956 65.6899C135.529 68.2976 138.406 72.0812 137.127 74.7103L137.13 74.7126Z" fill="black"/>
<path d="M125.224 31.1881C126.871 30.5821 127.374 30.5291 127.172 30.0359C125.855 26.8199 125.866 26.4958 125.39 26.6633C90.2879 38.8959 92.0653 38.0594 92.3502 38.6455C94.2497 42.5343 94.1622 42.6257 94.6069 42.4621C96.4833 41.7708 96.7821 41.5519 96.9726 41.982C98.0771 44.4806 98.0886 44.8178 98.5518 44.6496C100.269 44.0244 100.56 43.8047 100.758 44.2279C101.746 46.3525 101.79 46.7465 102.249 46.5714C109.853 43.678 110.026 43.797 109.787 43.2594C108.957 41.3891 108.635 40.9805 109.151 40.7915C110.522 40.293 110.999 40.2316 110.804 39.7561C109.806 37.3151 109.512 36.9741 110.026 36.7852C111.318 36.3089 111.635 36.0939 111.826 36.5071C112.912 38.859 112.933 39.1954 113.386 39.0418C114.917 38.5041 115.242 38.2653 115.43 38.7123C116.232 40.6218 116.258 40.949 116.704 40.793C124.335 38.1232 124.534 38.2414 124.298 37.6915C123.567 35.9863 123.247 35.5647 123.761 35.3826C125.662 34.7121 126.162 34.6752 125.965 34.1744C124.987 31.6812 124.724 31.3724 125.224 31.1881Z" fill="black"/>
<path d="M98.2843 40.0918C99.1092 42.0827 99.1184 42.3792 99.5178 42.2425C101.18 41.6764 101.389 41.5097 101.549 41.8792C102.383 43.8055 102.401 44.1066 102.797 43.9707C104.495 43.3762 104.883 43.3485 104.705 42.9238C103.886 40.9644 103.878 40.6817 103.484 40.8107C101.837 41.3484 101.576 41.5412 101.421 41.1556C100.63 39.1778 100.622 38.8898 100.222 39.0303C98.5232 39.6302 98.1053 39.6594 98.2843 40.0918Z" fill="white"/>
<path d="M113.227 34.5598C114.052 36.5507 114.061 36.848 114.462 36.7105C116.124 36.1452 116.332 35.9777 116.492 36.348C117.327 38.2736 117.344 38.5754 117.74 38.4395C119.439 37.845 119.826 37.8173 119.648 37.3918C118.83 35.4324 118.821 35.1505 118.428 35.2795C116.78 35.8172 116.519 36.0092 116.365 35.6237C115.573 33.6466 115.565 33.3578 115.165 33.4991C113.467 34.0982 113.048 34.1282 113.227 34.5606V34.5598Z" fill="white"/>
<path d="M36.2645 10.5417C36.4325 9.30912 36.412 8.0582 36.2039 6.8318C37.1519 7.30044 38.1863 7.56916 39.2426 7.62128C40.2989 7.67339 41.3546 7.50778 42.3442 7.13475C43.3338 6.76171 44.2362 6.1892 44.9952 5.45277C45.7543 4.71635 46.3538 3.83173 46.7567 2.85386C47.0383 2.36557 47.2034 1.81882 47.239 1.25624C48.6823 2.90379 47.8842 3.58432 49.9703 4.95997C52.2654 6.47387 53.287 6.83411 56.7641 6.76114C58.7811 6.90477 59.7596 5.87015 59.967 6.03452C60.1614 6.18814 59.8549 6.11748 59.0922 8.73283C58.3788 10.6073 58.2732 12.6586 58.7903 14.5964C59.0592 15.9106 59.6352 17.1219 61.6975 18.3954L61.5309 18.6742C62.9902 20.1029 64.2668 19.7956 64.319 20.4316C60.4786 22.5262 59.0077 23.4755 56.7772 26.4035C54.6711 29.1686 52.7178 32.814 52.9114 35.8034C52.9774 36.818 51.9382 35.4401 48.8996 36.1452C48.2537 36.3353 47.6184 36.5596 46.9963 36.8173C46.2228 37.0861 45.2896 36.9171 44.5776 37.3196C43.2181 38.0877 41.7956 39.0002 41.2441 40.5256C40.9453 41.3521 40.476 39.1776 39.5458 38.0155C38.7831 37.0646 37.5373 36.7865 36.611 35.9931C37.4359 35.967 33.395 34.0153 31.4148 33.7657C30.8679 33.6965 30.5139 33.7042 28.079 33.6735C28.079 33.3394 28.3862 33.4046 29.1543 32.2679C30.7673 29.8868 30.5991 25.839 29.8379 24.0916C29.8279 24.0693 29.8249 24.2091 29.8118 24.2306C29.0307 21.3656 27.4761 20.9278 28.0928 20.6313C32.1199 18.7042 35.0348 17.0758 36.2645 10.5417Z" fill="#FDFE1F"/>
<path d="M30.943 27.3385C31.0651 29.1383 30.5782 30.9269 29.5605 32.4163C28.6987 33.5147 27.8768 33.8411 27.8284 33.7482C27.5734 33.4049 30.1411 32.1091 29.9468 27.3777C29.7717 23.1117 27.6909 21.014 27.8876 20.7936C28.1241 20.5271 30.7564 22.9466 30.943 27.3385Z" fill="black"/>
<path d="M43.5275 7.2006C39.7024 9.3451 35.9626 7.15605 36.1777 6.83422C36.289 6.63221 38.273 7.61537 40.4951 7.21826C46.2558 6.1944 46.8818 0.747872 47.2543 0.798566C47.6691 0.825449 47.2474 5.1183 43.5275 7.2006Z" fill="black"/>
<path d="M35.1368 15.6229C32.7304 19.2537 28.0204 21.0664 27.8868 20.7937C27.5442 20.0955 35.7413 17.7413 36.0055 9.426C36.0554 7.85295 36.0293 6.84598 36.1776 6.83523C36.3734 6.82217 37.8397 11.5467 35.1368 15.6229Z" fill="black"/>
<path d="M35.4329 35.5829C31.6469 33.4169 27.8595 34.2211 27.8288 33.748C27.8157 33.546 33.3099 31.9238 38.5905 36.5592C40.8179 38.514 41.3011 40.8536 41.1083 40.9166C40.5476 41.1447 40.9831 38.7582 35.4329 35.5829Z" fill="black"/>
<path d="M46.3353 37.1324C41.3243 38.9889 41.5547 41.0028 41.1069 40.9198C41.0393 40.9068 41.0339 40.7094 41.0962 40.3361C41.696 37.6785 47.0105 34.9986 50.9193 35.4771C52.2296 35.6377 52.9163 36.1761 52.8449 36.2698C52.679 36.5717 50.8985 35.4426 46.3353 37.1324Z" fill="black"/>
<path d="M53.6 33.3334C53.0977 35.1054 53.0117 36.2737 52.845 36.2668C52.5477 36.2737 52.2659 31.2343 56.0648 26.3868C59.4037 22.127 64.4063 19.9833 64.5545 20.3066C64.7834 20.8067 56.1639 24.2838 53.6 33.3334Z" fill="black"/>
<path d="M58.4015 14.2233C57.2178 9.29372 60.0252 5.39029 60.367 5.68524C60.6804 5.90414 58.1626 8.97881 59.3685 13.9898C60.612 19.1476 64.6783 19.9149 64.5516 20.3066C64.5001 20.6161 59.6972 19.6199 58.4015 14.2233Z" fill="black"/>
<path d="M52.7646 5.97179C57.0798 7.47955 60.1567 5.31584 60.3687 5.68299C60.6068 6.02632 56.7034 8.40203 52.4313 6.91193C50.5335 6.22606 48.9475 4.87741 47.9656 3.11449C47.2375 1.77802 47.1422 0.830963 47.2544 0.801775C47.5954 0.685026 48.7199 4.56081 52.7646 5.97102V5.97179Z" fill="black"/>
<path d="M43.6486 9.87376C47.3209 7.73079 49.6228 8.55265 53.4595 10.3008C55.4626 11.2133 56.6716 12.135 56.4942 15.7404C55.9803 26.1634 47.5144 33.885 42.3229 34.0563C39.862 33.9931 37.4873 33.1364 35.553 31.6138C33.2971 29.8879 33.1227 28.5414 33.2625 26.36C33.7119 19.3366 38.7582 12.7311 43.6486 9.87376Z" fill="#92FCFF"/>
<path d="M54.7138 10.359C50.5539 8.43189 47.9838 7.13689 43.8738 9.22609C36.4394 12.7931 31.1726 24.4827 33.175 29.7341C33.8947 31.3394 34.6621 31.8786 36.8327 33.0369C41.23 35.3158 43.8392 35.2137 47.0022 33.3019C55.2054 28.4629 60.7172 13.1395 54.7138 10.359ZM55.9689 15.6588C53.915 15.4591 54.1739 15.3209 52.4871 14.4537C52.5701 13.6642 52.4928 12.8661 52.2599 12.1071C52.0269 11.3482 51.6431 10.6442 51.1315 10.0372C54.9757 11.5603 56.0557 12.0688 55.9689 15.6581V15.6588ZM34.1551 29.3309C32.1581 24.3651 37.0846 13.5182 44.3308 10.19C54.2284 5.73359 53.6531 18.0568 46.0459 27.3799C40.6655 33.9624 35.7773 32.6782 34.1559 29.3255L34.1551 29.3301V29.3309ZM41.856 33.5692C40.7703 33.3906 39.712 33.0736 38.7068 32.626C40.2129 32.5783 41.6767 32.1158 42.9367 31.2895C43.7724 31.7042 44.4268 31.3993 46.016 32.4762C44.7693 33.2472 43.3206 33.6279 41.856 33.5692ZM46.8578 31.9562C45.2195 31.4723 45.4261 31.7949 43.8 30.6712C45.0322 29.6555 46.1408 28.4985 47.1028 27.224C48.3364 27.5735 48.3318 27.0427 50.7781 28.2571C49.6655 29.6815 48.3426 30.9283 46.8547 31.9546L46.8578 31.9562ZM51.3557 27.5097C48.9747 27.1257 49.9102 27.4268 47.7119 26.4067C48.7912 24.8836 49.7334 23.2679 50.5277 21.5785C52.4157 22.2084 51.4349 21.5071 54.1017 22.9196C53.3336 24.5326 52.4142 26.0688 51.3557 27.5082V27.5097ZM54.4527 22.1369C52.2605 21.7575 52.6369 21.6922 50.9195 20.6914C51.6576 19.0149 52.1601 17.2443 52.4126 15.43C54.9757 15.9891 53.4764 15.5022 55.9151 16.5445C55.7229 18.4733 55.2294 20.3602 54.4527 22.1362V22.1369Z" fill="black"/>
<path d="M47.4592 23.1363C50.6391 17.9133 52.0801 10.2532 46.7142 10.4268C42.1825 10.6019 37.8566 17.762 38.0839 17.8926C38.213 17.9694 42.4175 11.1242 46.7295 11.0466C51.5685 10.9598 49.4578 18.4203 46.8217 22.7454C39.3182 35.0003 32.8217 30.4063 37.1929 19.8812C37.7175 18.6653 38.0786 18.0201 38.0263 17.9901C37.789 17.8465 33.5967 25.0335 35.931 29.1605C38.5594 33.8535 44.6365 27.7472 47.4592 23.1363Z" fill="black"/>
<path d="M44.3198 14.8262C43.8751 14.5581 43.7522 14.6503 43.5817 14.5527C43.0017 15.5305 42.0532 17.8356 41.0546 19.5031C37.3017 25.7684 37.9592 23.8274 38.7803 24.6047C38.1543 25.5649 38.3771 26.7861 39.202 25.1217C39.2711 24.9834 39.2381 24.9911 39.331 25.0602C40.05 25.5902 40.0738 25.3605 39.957 25.5656C39.2711 26.7715 39.7704 27.1556 40.5032 25.8659C40.6476 25.6125 40.5469 25.6632 40.7966 25.697C43.3082 26.0741 44.5057 22.2521 43.5817 20.3534C44.0699 20.36 44.5508 20.2335 44.9726 19.9874C45.3945 19.7414 45.7413 19.3851 45.9759 18.9568C46.2105 18.5285 46.324 18.0444 46.3042 17.5564C46.2845 17.0685 46.1321 16.5951 45.8637 16.1872C46.4259 15.4906 46.3852 14.7233 46.2062 14.6902C46.0273 14.6572 45.8007 15.0896 45.5203 15.5858C45.3936 15.8109 45.5748 15.7394 44.829 15.1726C45.7139 13.8592 45.071 13.4682 44.3198 14.827V14.8262ZM39.692 23.7913C40.1873 22.4564 40.7743 21.1573 41.4487 19.9033C42.0301 20.1363 42.5289 20.5374 42.8812 21.0554C43.9357 23.0701 42.2575 26.6778 39.692 23.7913ZM45.6486 17.46C45.7438 17.8122 45.7152 18.1863 45.5677 18.52C45.4203 18.8537 45.1628 19.1267 44.8382 19.2934C43.8451 19.7927 42.8873 19.1175 42.1837 18.7481C42.8266 17.791 43.5433 16.8225 44.0786 16.0597C44.7952 16.3923 45.4489 16.7372 45.6486 17.4561V17.46Z" fill="black"/>
<path d="M54.7138 10.359C50.5539 8.43189 47.9838 7.13689 43.8738 9.22609C36.4394 12.7931 31.1726 24.4827 33.175 29.7341C33.8947 31.3394 34.6621 31.8786 36.8327 33.0369C41.23 35.3158 43.8392 35.2137 47.0022 33.3019C55.2054 28.4629 60.7172 13.1395 54.7138 10.359ZM55.9689 15.6588C53.915 15.4591 54.1739 15.3209 52.4871 14.4537C52.5701 13.6642 52.4928 12.8661 52.2599 12.1071C52.0269 11.3482 51.6431 10.6442 51.1315 10.0372C54.9757 11.5603 56.0557 12.0688 55.9689 15.6581V15.6588ZM34.1551 29.3309C32.1581 24.3651 37.0846 13.5182 44.3308 10.19C54.2284 5.73359 53.6531 18.0568 46.0459 27.3799C40.6655 33.9624 35.7773 32.6782 34.1559 29.3255L34.1551 29.3301V29.3309ZM41.856 33.5692C40.7703 33.3906 39.712 33.0736 38.7068 32.626C40.2129 32.5783 41.6767 32.1158 42.9367 31.2895C43.7724 31.7042 44.4268 31.3993 46.016 32.4762C44.7693 33.2472 43.3206 33.6279 41.856 33.5692ZM46.8578 31.9562C45.2195 31.4723 45.4261 31.7949 43.8 30.6712C45.0322 29.6555 46.1408 28.4985 47.1028 27.224C48.3364 27.5735 48.3318 27.0427 50.7781 28.2571C49.6655 29.6815 48.3426 30.9283 46.8547 31.9546L46.8578 31.9562ZM51.3557 27.5097C48.9747 27.1257 49.9102 27.4268 47.7119 26.4067C48.7912 24.8836 49.7334 23.2679 50.5277 21.5785C52.4157 22.2084 51.4349 21.5071 54.1017 22.9196C53.3336 24.5326 52.4142 26.0688 51.3557 27.5082V27.5097ZM54.4527 22.1369C52.2605 21.7575 52.6369 21.6922 50.9195 20.6914C51.6576 19.0149 52.1601 17.2443 52.4126 15.43C54.9757 15.9891 53.4764 15.5022 55.9151 16.5445C55.7229 18.4733 55.2294 20.3602 54.4527 22.1362V22.1369Z" fill="black"/>
<path d="M47.4592 23.1363C50.6391 17.9133 52.0801 10.2532 46.7142 10.4268C42.1825 10.6019 37.8566 17.762 38.0839 17.8926C38.213 17.9694 42.4175 11.1242 46.7295 11.0466C51.5685 10.9598 49.4578 18.4203 46.8217 22.7454C39.3182 35.0003 32.8217 30.4063 37.1929 19.8812C37.7175 18.6653 38.0786 18.0201 38.0263 17.9901C37.789 17.8465 33.5967 25.0335 35.931 29.1605C38.5594 33.8535 44.6365 27.7472 47.4592 23.1363Z" fill="black"/>
<path d="M44.3198 14.8262C43.8751 14.5581 43.7522 14.6503 43.5817 14.5527C43.0017 15.5305 42.0532 17.8356 41.0546 19.5031C37.3017 25.7684 37.9592 23.8274 38.7803 24.6047C38.1543 25.5649 38.3771 26.7861 39.202 25.1217C39.2711 24.9834 39.2381 24.9911 39.331 25.0602C40.05 25.5902 40.0738 25.3605 39.957 25.5656C39.2711 26.7715 39.7704 27.1556 40.5032 25.8659C40.6476 25.6125 40.5469 25.6632 40.7966 25.697C43.3082 26.0741 44.5057 22.2521 43.5817 20.3534C44.0699 20.36 44.5508 20.2335 44.9726 19.9874C45.3945 19.7414 45.7413 19.3851 45.9759 18.9568C46.2105 18.5285 46.324 18.0444 46.3042 17.5564C46.2845 17.0685 46.1321 16.5951 45.8637 16.1872C46.4259 15.4906 46.3852 14.7233 46.2062 14.6902C46.0273 14.6572 45.8007 15.0896 45.5203 15.5858C45.3936 15.8109 45.5748 15.7394 44.829 15.1726C45.7139 13.8592 45.071 13.4682 44.3198 14.827V14.8262ZM39.692 23.7913C40.1873 22.4564 40.7743 21.1573 41.4487 19.9033C42.0301 20.1363 42.5289 20.5374 42.8812 21.0554C43.9357 23.0701 42.2575 26.6778 39.692 23.7913ZM45.6486 17.46C45.7438 17.8122 45.7152 18.1863 45.5677 18.52C45.4203 18.8537 45.1628 19.1267 44.8382 19.2934C43.8451 19.7927 42.8873 19.1175 42.1837 18.7481C42.8266 17.791 43.5433 16.8225 44.0786 16.0597C44.7952 16.3923 45.4489 16.7372 45.6486 17.4561V17.46Z" fill="black"/>
<path d="M65.9034 17.6637C66.0784 18.5794 66.3992 19.4611 66.8535 20.2752C66.9531 20.4196 67.0896 20.5348 67.2487 20.6087C67.4078 20.6827 67.5837 20.7128 67.7584 20.6959C67.933 20.6789 68.0999 20.6156 68.2419 20.5125C68.3838 20.4094 68.4956 20.2701 68.5656 20.1093C68.8006 19.7045 68.8114 19.4802 69.3222 16.6921C69.5334 15.5345 65.2736 14.9085 65.9034 17.6637Z" fill="#FFC5F6"/>
<path d="M72.1467 15.6851C70.9884 19.3566 70.8071 19.6316 71.0668 20.0371C71.3264 20.4427 72.8334 20.8759 73.371 20.9074C74.0554 20.9458 74.3864 20.826 78.233 19.895C79.3506 19.6247 79.2953 19.3996 79.7738 18.7875C80.2201 18.2168 80.6955 17.9303 79.8821 16.6491C79.4359 15.9478 76.8535 12.2034 76.2153 12.0713C75.7168 11.9637 72.7719 13.705 72.1467 15.6851Z" fill="#FFC5F6"/>
<path d="M88.6994 111.931C89.6703 111.06 90.7264 110.148 92.0206 109.984C93.8763 109.748 94.0115 111.228 94.6521 114.715C94.901 116.071 94.5238 116.041 93.9278 116.826C93.2887 117.671 93.2365 119.726 91.8486 119.741C91.0367 119.75 90.5912 118.896 88.2385 117.868C86.9328 117.299 86.0556 116.909 86.0234 115.169C86.0011 113.974 86.1808 114.196 88.6994 111.931Z" fill="#FFC5F6"/>
<path d="M95.8847 108.119C96.1945 107.987 96.5379 107.955 96.8664 108.029C97.7121 108.76 98.4924 109.563 99.1983 110.429C99.686 111.01 99.6991 111.402 98.9433 111.901C98.3565 112.315 97.7289 112.668 97.0707 112.954C96.3709 112.886 95.8786 110.566 95.8417 110.414C95.6812 109.799 95.099 108.563 95.8847 108.119Z" fill="#FFC5F6"/>
<path d="M31.9348 45.0478C31.4334 46.6129 31.0266 48.2067 30.7166 49.8207C30.5154 50.9014 30.8265 51.1725 31.4156 51.3999C32.6123 51.8684 33.8766 52.1395 35.16 52.2048C35.5664 52.128 36.5342 51.4291 39.1057 50.4997C39.797 50.2508 40.201 50.0027 40.1042 49.3022C39.8531 47.4534 38.383 46.8443 37.8115 46.4526C36.6824 45.6845 35.4304 43.5746 33.1046 44.1844C32.8605 44.2395 32.6305 44.3447 32.4291 44.4933C32.2277 44.6419 32.0594 44.8307 31.9348 45.0478Z" fill="#FFC5F6"/>
<path d="M41.2643 53.784C41.308 53.6118 41.3052 53.4311 41.2561 53.2603C41.2071 53.0896 41.1135 52.935 40.985 52.8123C40.8565 52.6896 40.6978 52.6032 40.525 52.5621C40.3521 52.5209 40.1715 52.5264 40.0015 52.5781C39.5015 52.7371 39.1297 53.1234 38.6512 53.3193C38.0559 53.5635 36.4237 54.4983 36.5897 55.1258C36.6849 55.4868 37.7633 56.3939 38.0613 56.6213C38.7964 57.182 39.2135 57.0629 39.7358 56.3563C40.3367 55.5566 40.8491 54.6941 41.2643 53.784Z" fill="#FFC5F6"/>
<path d="M80.5447 16.9341C80.4924 16.8573 77.2281 12.1028 77.0622 11.9415C76.871 11.7605 76.6326 11.6371 76.3745 11.5855C76.1163 11.5338 75.8489 11.5561 75.6028 11.6496C75.3585 11.7372 75.2702 11.8109 72.5235 14.0207C71.9367 14.4747 71.9958 14.6505 71.8322 15.169C71.813 15.2458 70.8207 19.3167 70.8498 19.6331C70.9328 20.4012 71.9805 20.8045 71.4643 20.2476C71.3582 20.1399 71.2849 20.0041 71.2532 19.8562C71.2215 19.7083 71.2327 19.5545 71.2854 19.4127C73.2232 13.947 71.6694 15.7412 75.7787 12.6535C75.8222 12.6094 75.8749 12.5754 75.9331 12.554C75.9913 12.5327 76.0535 12.5244 76.1153 12.5299C76.177 12.5354 76.2368 12.5545 76.2902 12.5859C76.3437 12.6172 76.3896 12.66 76.4246 12.7111C80.047 17.7652 79.8142 17.4932 79.7712 17.7321C79.7505 17.8573 79.7781 17.7521 78.8533 19.1592C78.6652 19.445 78.7159 19.2698 73.8838 20.5787C73.1741 20.7561 73.4621 20.7891 72.7555 20.6286C71.2869 20.2945 71.3199 20.4258 72.631 20.9957C72.8231 21.0987 73.0305 21.1693 73.2455 21.207C73.6372 21.25 78.8003 20.2084 78.8795 20.1869C79.424 20.0287 79.5177 19.7799 80.5262 18.3719C80.6607 18.1569 80.7335 17.9091 80.7367 17.6556C80.74 17.402 80.6735 17.1525 80.5447 16.9341Z" fill="black"/>
<path d="M69.612 15.8626C69.4674 15.6424 69.2625 15.4684 69.0217 15.3615C68.7809 15.2546 68.5144 15.2192 68.2541 15.2596C66.7332 15.5131 66.1579 15.5062 65.7278 16.0124C65.0173 16.8465 65.5903 17.7851 66.3815 19.8298C66.7217 20.7092 67.3446 20.6877 67.3539 20.581C67.3992 20.432 67.0758 20.528 66.9161 19.6716C66.4667 17.2551 65.9821 16.5838 66.7248 16.517C67.3239 16.3634 67.9384 16.2728 68.5559 16.2482C68.6549 16.2709 68.7424 16.3283 68.8026 16.4101C68.8628 16.4918 68.8916 16.5924 68.8839 16.6937C68.8839 16.7144 68.3071 20.0118 68.2794 20.0733C68.2055 20.1901 68.1074 20.2898 67.9917 20.3656C67.8761 20.4414 67.7455 20.4915 67.6089 20.5126C67.1288 20.687 68.1788 21.0426 68.731 20.3997C68.9185 20.1432 69.0444 19.8474 69.0997 19.5348C69.7956 17.2697 70.0637 16.5247 69.612 15.8634V15.8626Z" fill="black"/>
<path d="M40.0187 49.4126C39.9326 50.1515 39.5655 49.9895 35.5845 51.7077C34.9523 51.965 35.3003 51.9158 34.2019 51.6877C31.3446 51.0925 31.0197 51.0663 31.0528 50.6162C31.0597 50.5394 32.5006 45.0476 32.5221 44.9708C32.5449 44.8962 32.5878 44.8294 32.646 44.7777C32.7043 44.7259 32.7757 44.6912 32.8524 44.6774C34.5583 44.4838 34.5115 44.4592 34.6897 44.5598C34.7043 44.5706 39.2007 47.709 39.2122 47.7244C39.3381 47.8526 40.6124 50.6016 39.8267 48.0401C39.4879 47.1399 39.6508 47.487 39.0301 46.9125C34.9362 43.5667 34.9355 43.5467 34.301 43.6097C31.2379 43.8586 31.9007 43.2026 30.1103 50.2921C30.0641 50.4793 30.0572 50.674 30.0901 50.864C30.1229 51.054 30.1948 51.2352 30.3012 51.396C30.4076 51.5568 30.5462 51.6938 30.7082 51.7983C30.8702 51.9029 31.0521 51.9727 31.2425 52.0034C35.0407 52.6816 35.0107 52.7715 35.3287 52.6809C35.6959 52.5887 39.6024 50.5241 39.6799 50.4818C40.6201 49.9657 40.1085 48.6461 40.0187 49.4126Z" fill="black"/>
<path d="M41.1838 53.2048C41.1162 53.2355 41.1684 53.4352 41.0762 53.6964C41.0593 53.7463 39.1138 56.3517 39.0723 56.3847C38.7044 56.6151 38.6114 56.4154 37.2058 55.228C37.1475 55.1781 37.1041 55.1129 37.0807 55.0398C37.0572 54.9667 37.0545 54.8885 37.073 54.814C37.1498 54.4821 37.3848 54.5835 39.9502 52.9521C40.0497 52.879 40.1667 52.8334 40.2894 52.8199C40.4121 52.8064 40.5362 52.8255 40.6492 52.8753C40.8143 52.9383 41.0401 53.1526 41.1231 53.1011C41.2844 53.0013 40.686 51.9259 39.6537 52.3891C36.6743 53.7279 36.3279 53.8254 36.1297 54.5551C36.0565 54.8082 36.0575 55.0769 36.1327 55.3294C36.2078 55.5819 36.354 55.8074 36.5537 55.9792C37.7727 57.0038 38.1237 57.4124 38.7674 57.4109C39.8627 57.4109 40.1906 56.3893 41.2445 54.4338C41.6923 53.6019 41.2706 53.1434 41.1838 53.2048Z" fill="black"/>
<path d="M94.9856 115.442C94.9803 115.065 93.8734 110.779 93.8512 110.701C93.5662 109.663 92.1614 109.86 92.8872 110.127C93.5877 110.38 93.3542 110.724 94.0947 114.971C94.1991 115.644 94.2314 115.297 93.7575 116.307C92.5001 118.986 92.4095 119.258 91.9855 119.127C91.9087 119.103 86.9007 116.431 86.8324 116.393C86.7654 116.354 86.7106 116.296 86.6739 116.228C86.6372 116.159 86.62 116.082 86.6242 116.004C86.8301 114.3 86.7947 114.34 86.9314 114.189C86.946 114.177 91.0384 110.53 91.0561 110.521C91.2197 110.422 94.1738 109.824 91.5054 109.994C90.5591 110.116 90.9363 110.029 90.2243 110.508C86.0105 113.721 85.9998 113.721 85.916 114.348C85.4513 117.394 84.9705 116.59 91.4532 119.97C91.6247 120.058 91.8126 120.11 92.0051 120.122C92.1975 120.134 92.3904 120.106 92.5715 120.04C92.7526 119.973 92.918 119.87 93.0572 119.736C93.1964 119.603 93.3064 119.442 93.3803 119.264C94.9081 115.758 94.9979 115.775 94.9856 115.442Z" fill="black"/>
<path d="M99.8344 110.355C99.6485 109.978 97.4041 107.862 96.9878 107.806C96.7044 107.753 96.1667 107.729 96.8503 108.169C96.9901 108.278 97.1092 108.411 97.2021 108.561C98.6853 110.481 99.4434 110.882 98.8151 111.28C97.3557 112.356 97.4287 112.317 97.3081 112.356C97.2097 112.381 97.1053 112.37 97.0143 112.325C96.9233 112.28 96.8517 112.203 96.8127 112.109C96.8058 112.09 95.8142 108.894 95.8103 108.829C95.8226 108.692 95.8643 108.558 95.9327 108.438C96.0011 108.318 96.0945 108.214 96.2067 108.133C96.4893 107.826 95.9279 107.956 95.6967 108.106C95.0054 108.567 95.1813 109.223 95.7596 111.788C95.8772 112.268 95.9133 112.837 96.5446 113.18C96.7737 113.31 97.0353 113.372 97.2983 113.357C97.5612 113.343 97.8145 113.253 98.0278 113.098C99.12 112.283 100.435 111.613 99.8344 110.355Z" fill="black"/>
<path d="M80.144 53.4395C81.1719 52.2235 81.8204 50.7324 82.0089 49.1513C82.0534 47.0306 80.6194 45.6557 81.3107 45.9368C81.8107 46.1396 81.6832 46.3977 82.575 46.4745C86.1197 46.7679 88.2442 46.7149 90.8342 44.247C91.238 43.7748 91.6718 43.3291 92.1331 42.9129C92.1965 44.096 92.5819 45.2393 93.2476 46.2195C93.7368 46.9876 94.2661 47.728 94.8337 48.4393C95.7938 49.3823 96.9851 50.0561 98.288 50.3932C99.5909 50.7302 100.96 50.7186 102.256 50.3595C101.884 51.557 101.382 52.7102 100.758 53.7982C99.9131 55.2791 100.335 57.0242 100.25 58.7263C100.193 61.5853 100.925 64.4048 102.364 66.8757C101.167 67.4302 100.02 68.0884 98.9376 68.8428C94.7131 71.7892 97.7217 77.5315 96.1725 76.6097C94.0671 75.357 90.9579 74.2986 88.6375 75.1919C87.758 75.5306 86.728 76.4469 84.4176 77.2972C85.0828 75.7165 84.3362 74.0336 83.5942 72.5688C83.4131 72.1316 83.0879 71.7695 82.6725 71.5427C81.782 70.8668 80.8339 70.2706 79.839 69.7607C79.4204 69.5925 78.0394 69.2852 78.1961 68.3474C78.2898 67.789 80.6394 65.1345 79.6554 60.8869C78.9258 57.7293 79.0594 58.181 76.9525 55.6824C76.7436 55.4343 76.769 55.2584 77.0923 55.1931C78.2429 54.8796 79.2937 54.2757 80.144 53.4395Z" fill="#FDFE1F"/>
<path d="M100.621 58.6742C100.779 53.7208 102.761 50.5501 102.418 50.3643C102.337 50.1246 100.485 50.8197 98.1286 49.9649C95.7519 48.9416 93.8729 47.0248 92.8971 44.6282C91.9063 42.1472 92.8165 42.0366 90.7465 43.8171C89.6887 44.8057 88.4123 45.5303 87.0213 45.9319C85.6303 46.3336 84.1641 46.4008 82.7422 46.1282C80.335 45.6551 80.7636 45.069 81.2775 47.5162C82.5502 53.8406 76.6221 54.9667 76.6651 55.31C76.4347 55.5043 78.1245 57.2924 78.8465 59.1458C79.8127 61.6099 79.3841 64.2152 78.5707 66.7077C77.6805 69.3538 77.5553 68.5688 79.5009 69.6464C82.2814 71.2479 83.9758 73.8824 84.1954 75.828C84.4719 77.825 83.581 78.0255 86.181 76.8526C89.2848 75.4962 91.7388 74.8279 94.8488 76.2136C97.1708 77.239 96.6101 77.6691 96.7514 75.1183C97.1193 68.2992 102.557 67.3921 102.414 66.8866C102.763 66.6555 100.463 63.9449 100.621 58.6742ZM102.294 66.8344C99.7731 66.6393 95.5486 70.1449 96.0501 75.1298C96.2483 77.1115 96.895 76.6783 95.183 75.5868C92.8948 74.1105 89.6304 73.8655 85.8491 76.2289C83.9496 77.4579 84.8445 77.5493 84.9036 75.7865C85.0403 73.3286 82.7775 70.1065 79.7997 69.0027C77.6029 68.22 77.9378 69.5742 79.2274 66.9711C81.6085 62.063 80.0854 57.5006 76.9278 55.4052C79.7659 55.6833 83.657 51.8974 81.958 47.3149C81.3543 45.7526 80.9649 46.222 82.5563 46.8042C84.0886 47.3028 85.7349 47.3323 87.2839 46.8887C88.833 46.4452 90.2142 45.5489 91.2503 44.3148C92.606 42.7149 91.6943 42.7018 92.225 44.8471C93.262 49.0716 98.4827 52.6002 102.128 50.6154C100.555 53.0033 99.6868 55.7863 99.6233 58.645C99.5073 62.7251 101.261 66.0433 102.296 66.8344H102.294Z" fill="black"/>
<path d="M111.245 97.131C110.988 91.7743 111.399 90.828 111.091 90.06C110.34 88.1635 107.884 89.8564 99.9079 82.1555C97.7979 80.1186 96.6166 78.504 96.7203 75.1936C96.8493 71.0751 99.9463 66.1578 102.873 66.1462C103.667 66.207 104.44 66.4281 105.146 66.796C110.732 69.1863 116.833 70.2179 122.375 72.7057C123.859 73.2428 125.114 74.2732 125.928 75.6245C127.726 78.2944 129.331 82.3629 132.867 83.5896C133.712 83.8822 134.149 84.0504 134.09 84.9837C134.004 85.8079 133.77 86.6098 133.399 87.3509C130.562 93.6208 124.902 98.2086 118.832 101.454C113.732 104.179 111.617 104.874 111.245 97.131Z" fill="white"/>
<path d="M121.303 71.3268C103.56 65.4663 103.754 65.3803 102.177 65.6791C100.43 66.0093 98.8459 67.4242 97.7759 68.8543C92.5844 75.7948 97.9672 84.0326 105.534 88.2041C110.382 90.8778 116.97 92.1536 117.084 91.7327C117.315 90.8809 106.966 89.3032 100.699 82.1577C93.8487 74.3462 99.7776 67.8942 102.489 67.3973C103.631 67.1876 104.57 67.8251 106.769 68.5079C121.538 73.095 122.403 73.33 124.02 74.5712C127.619 77.3364 127.921 82.8535 130.537 86.4874C131.135 87.3177 131.59 87.671 131.669 87.6088C131.923 87.4083 131.228 87.1118 129.758 82.2675C127.993 76.4546 127.108 73.2455 121.303 71.3268Z" fill="black"/>
<path d="M112.17 101.502C112.562 101.307 111.417 99.4209 111.678 94.3868C111.716 92.9367 111.917 91.4958 112.278 90.0909L110.658 89.4396C110.36 90.2776 110.191 91.1557 110.157 92.0442C109.62 98.3233 111.758 101.747 112.17 101.502Z" fill="black"/>
<path d="M133.61 83.8559C133.692 83.4558 130.314 82.8851 128.668 78.6944L127.507 79.1499C128.207 80.9859 129.55 82.5052 131.287 83.425C132.644 84.0733 133.596 83.9996 133.61 83.8559Z" fill="black"/>
<path d="M116.46 74.8128C110.915 73.3128 103.696 70.0453 103.821 69.7673C103.925 69.5368 110.324 72.3749 116.655 74.0908C121.647 75.4434 124.08 76.5787 125.635 82.079C126.44 84.9209 125.135 81.3961 124.099 79.5873C122.312 76.4473 120.309 75.8544 116.46 74.8128Z" fill="black"/>
<path d="M27.6038 67.8261C30.8297 64.902 41.9079 61.0669 46.5034 60.4263C48.2155 60.1867 49.3223 60.3188 50.7148 61.8711C53.7872 65.2983 53.3932 70.867 50.8377 74.6982C48.2823 78.5295 44.0555 80.9044 39.7849 82.6226C38.7173 83.052 38.7549 83.4982 38.9569 83.9729C40.586 87.8282 41.0747 92.07 40.3648 96.1948C40.096 97.7363 39.5483 99.4 38.1926 100.181C35.5957 101.678 22.4207 101.031 13.6967 91.342C12.9181 90.5552 12.3058 89.6198 11.8963 88.5914C10.6712 85.0175 13.8834 84.751 16.0271 83.0934C20.893 79.3298 24.0152 71.0751 27.6038 67.8261Z" fill="white"/>
<path d="M31.2434 70.2978C29.0973 72.1351 26.9774 75.7997 26.6932 75.5977C26.5442 75.4894 28.6134 71.5736 30.7641 69.7279C32.1082 68.5712 33.477 68.2186 35.4072 67.641C38.0563 66.8476 38.1416 67.0688 35.5854 68.1387C33.3764 69.0605 32.5338 69.1941 31.2434 70.2978Z" fill="black"/>
<path d="M53.1698 64.5548C52.1068 60.7098 49.2733 58.2373 45.4628 59.4217C44.9804 59.5753 43.7976 59.997 34.4146 63.3735C28.2906 65.5772 26.6238 66.2777 20.8271 75.9011C17.3645 81.6848 19.2494 79.5549 16.3069 81.9767C16.1263 82.1264 13.574 84.2041 13.6416 84.413C13.6815 84.5444 14.1508 84.5175 14.7722 84.201C15.6826 83.7188 16.5311 83.128 17.2992 82.4413C15.4558 86.3118 14.8283 87.0821 14.9819 87.2089C15.0695 87.2857 15.5464 86.9132 16.2339 86.0852C17.6933 84.3447 18.3999 82.6042 22.1912 76.7544C27.9595 67.8968 28.5494 67.3422 35.0045 65.0165C46.787 60.7781 46.2332 60.941 47.055 60.8741C53.2812 60.4187 55.9019 76.6016 38.7435 82.5896C35.4123 83.764 32.9199 83.8308 32.9268 84.1334C32.9268 84.2425 33.5151 84.3693 34.5889 84.3739C35.6981 84.3739 36.8041 84.264 37.8917 84.0459C42.0471 91.4196 38.8726 98.7825 39.3703 98.986C39.9218 99.2932 43.687 91.4188 39.6453 83.6242C47.6227 81.3215 55.5463 73.6713 53.1698 64.5548Z" fill="black"/>
</svg>
